:SAMPLES-PER-SECOND 30
:FULLY-SPECIFIED
:DEGREES
551
root  0.782398 39.5961 12.5805 -172.514 3.06253 -179.543
RightUpLeg  -17.3693 2.22792 -6.92378
RightLeg  15.5494 4.54585 0.41879
RightFoot  -4.05111 -0.395941 5.89054
RightToes  -1.33073e-015 0 -3.6325e-017
Spine  21.6935 1.71844 7.10306
Spine1  9.63494 3.07059 0.409575
HEad  8.48491 -8.99536 2.03368
LeftShoulder1  7.58171 -16.7793 -31.3315
LeftArm  -0.693624 -34.8413 -69.2266
LeftForeArm  34.7197 6.61209 -5.28318
LeftHand  -0.246645 0.021 5.37786
RightShoulder  8.96848 17.0731 37.5174
RightArm  9.84515 34.0283 51.7913
RightForeArm  14.5127 8.61025 12.3663
RightHand  -0.24729 -0.0210522 -5.37781
LeftUpLeg  -12.8148 17.1352 11.8629
LeftLeg  11.4694 1.74427 -1.4624
LeftFoot  -1.05124 1.0281 -11.3059
LeftToes  5.09284e-011 3.02203e-011 3.83118e-011
552
root  0.817419 39.5879 12.586 -172.48 3.4194 -179.499
RightUpLeg  -17.5584 2.39077 -6.84525
RightLeg  15.6825 4.70911 0.516893
RightFoot  -4.05391 -0.387598 5.76625
RightToes  -1.33073e-015 0 -3.6325e-017
Spine  21.9098 1.70207 6.81177
Spine1  9.35183 3.00891 0.41844
HEad  8.52134 -8.66569 1.88031
LeftShoulder1  7.55403 -16.7636 -31.2232
LeftArm  -0.550659 -35.1322 -69.2866
LeftForeArm  36.0784 6.58504 -5.25918
LeftHand  -0.246645 0.021 5.37786
RightShoulder  8.99604 17.0903 37.6113
RightArm  8.79632 33.8078 51.7753
RightForeArm  14.8696 8.3315 12.3196
RightHand  -0.24729 -0.0210522 -5.37781
LeftUpLeg  -12.7608 17.241 11.9688
LeftLeg  11.5101 1.96673 -1.37485
LeftFoot  -1.11005 1.03765 -11.4892
LeftToes  5.09284e-011 3.02203e-011 3.83118e-011
553
root  0.85885 39.5739 12.586 -172.364 4.04623 -179.411
RightUpLeg  -17.9024 2.96621 -6.76416
RightLeg  15.8525 4.72131 0.590918
RightFoot  -4.04684 -0.379801 5.64577
RightToes  -1.33073e-015 0 -3.6325e-017
Spine  22.0412 1.70349 6.51431
Spine1  9.07697 3.01956 0.215186
HEad  8.51699 -8.21001 1.78043
LeftShoulder1  7.58843 -16.8107 -31.3059
LeftArm  -0.712926 -35.5469 -69.1319
LeftForeArm  38.0642 6.51299 -5.04165
LeftHand  -0.246645 0.021 5.37786
RightShoulder  9.07399 17.1106 37.9348
RightArm  7.28292 33.6779 51.6745
RightForeArm  15.6787 7.80136 12.2837
RightHand  -0.24729 -0.0210522 -5.37781
LeftUpLeg  -12.7265 17.4972 12.1394
LeftLeg  11.6302 2.30255 -1.28059
LeftFoot  -1.22636 1.04732 -11.7206
LeftToes  5.09284e-011 3.02203e-011 3.83118e-011
554
root  0.906795 39.5585 12.5803 -172.236 4.92754 -179.317
RightUpLeg  -18.3157 3.96506 -6.72421
RightLeg  16.0426 4.5682 0.626962
RightFoot  -4.02657 -0.373949 5.55146
RightToes  -1.33073e-015 0 -3.6325e-017
Spine  22.0631 1.72298 6.09803
Spine1  8.9749 3.04343 -0.0570494
HEad  8.53609 -7.50299 1.72251
LeftShoulder1  7.6518 -16.8773 -31.4955
LeftArm  -0.533205 -36.2092 -68.8115
LeftForeArm  39.9651 6.47565 -5.04133
LeftHand  -0.246645 0.021 5.37786
RightShoulder  9.15084 17.1341 38.2455
RightArm  5.64168 33.7189 51.6017
RightForeArm  16.2758 7.15961 12.2421
RightHand  -0.24729 -0.0210522 -5.37781
LeftUpLeg  -12.6078 17.9465 12.3653
LeftLeg  11.7771 2.70482 -1.23819
LeftFoot  -1.35552 1.04883 -11.8803
LeftToes  5.09284e-011 3.02203e-011 3.83118e-011
555
root  0.955713 39.5434 12.5799 -172.212 5.86197 -179.288
RightUpLeg  -18.6704 5.05505 -6.76739
RightLeg  16.2896 4.38546 0.66184
RightFoot  -4.02747 -0.369887 5.48153
RightToes  -1.33073e-015 0 -3.6325e-017
Spine  22.1473 1.67757 5.40603
Spine1  8.9492 2.88755 -0.106102
HEad  8.64328 -6.469 1.60813
LeftShoulder1  7.66548 -16.9013 -31.5182
LeftArm  0.154866 -37.0135 -68.6414
LeftForeArm  41.5364 6.48819 -5.31639
LeftHand  -0.246645 0.021 5.37786
RightShoulder  9.17266 17.1542 38.3051
RightArm  4.00975 33.8584 51.673
RightForeArm  16.3251 6.60116 12.1315
RightHand  -0.24729 -0.0210522 -5.37781
LeftUpLeg  -12.3546 18.5055 12.5612
LeftLeg  11.9051 3.02152 -1.23567
LeftFoot  -1.46115 1.04911 -12.0031
LeftToes  5.09284e-011 3.02203e-011 3.83118e-011
556
root  1.00471 39.5255 12.5922 -172.287 6.7429 -179.308
RightUpLeg  -18.9676 5.99837 -6.84412
RightLeg  16.6137 4.29519 0.739414
RightFoot  -4.05994 -0.364719 5.39155
RightToes  -1.33073e-015 0 -3.6325e-017
Spine  22.4125 1.50589 4.45512
Spine1  8.77585 2.48054 0.0944858
HEad  8.79667 -5.17798 1.43374
LeftShoulder1  7.61652 -16.8881 -31.301
LeftArm  0.7381 -37.8107 -68.7633
LeftForeArm  43.4069 6.46602 -5.43437
LeftHand  -0.246645 0.021 5.37786
RightShoulder  9.15799 17.1664 38.2114
RightArm  2.4198 33.9714 51.8426
RightForeArm  16.0747 6.20993 11.9262
RightHand  -0.24729 -0.0210522 -5.37781
LeftUpLeg  -12.0528 19.0944 12.6984
LeftLeg  12.0585 3.21775 -1.19271
LeftFoot  -1.57262 1.05292 -12.1764
LeftToes  5.09284e-011 3.02203e-011 3.83118e-011
557
root  1.05595 39.5029 12.6096 -172.39 7.68214 -179.314
RightUpLeg  -19.2771 6.86524 -6.89703
RightLeg  16.9843 4.32553 0.88383
RightFoot  -4.10263 -0.356042 5.24486
RightToes  -1.33073e-015 0 -3.6325e-017
Spine  22.7769 1.23693 3.38717
Spine1  8.43563 1.94429 0.29479
HEad  8.91556 -3.74474 1.28583
LeftShoulder1  7.58311 -16.9077 -31.0992
LeftArm  0.819769 -38.6703 -68.943
LeftForeArm  46.0649 6.35929 -5.17133
LeftHand  -0.246645 0.021 5.37786
RightShoulder  9.15276 17.1656 38.1886
RightArm  0.986755 33.996 51.9663
RightForeArm  15.6767 6.0443 11.6517
RightHand  -0.24729 -0.0210522 -5.37781
LeftUpLeg  -11.7392 19.6449 12.8421
LeftLeg  12.2731 3.49531 -1.06519
LeftFoot  -1.74382 1.05534 -12.4096
LeftToes  5.09284e-011 3.02203e-011 3.83118e-011
558
root  1.10608 39.4782 12.6194 -172.501 8.82069 -179.307
RightUpLeg  -19.6082 7.80138 -6.95285
RightLeg  17.3606 4.46644 1.09007
RightFoot  -4.14261 -0.345557 5.06847
RightToes  -1.33073e-015 0 -3.6325e-017
Spine  23.0805 0.917761 2.2698
Spine1  8.13771 1.39033 0.307458
HEad  8.98431 -2.15562 1.18303
LeftShoulder1  7.60669 -16.9908 -31.0622
LeftArm  0.836952 -39.7741 -68.9996
LeftForeArm  49.1352 6.22692 -4.84887
LeftHand  -0.246645 0.021 5.37786
RightShoulder  9.16274 17.1523 38.263
RightArm  -0.236144 33.9806 51.9879
RightForeArm  14.8754 6.18437 11.3333
RightHand  -0.24729 -0.0210522 -5.37781
LeftUpLeg  -11.32 20.1298 13.0388
LeftLeg  12.4926 4.02352 -0.905181
LeftFoot  -1.97499 1.05161 -12.6531
LeftToes  5.09284e-011 3.02203e-011 3.83118e-011
559
root  1.14899 39.4541 12.619 -172.627 10.1673 -179.344
RightUpLeg  -19.9601 8.83598 -7.07645
RightLeg  17.7375 4.70167 1.32544
RightFoot  -4.18184 -0.336664 4.91587
RightToes  -1.33073e-015 0 -3.6325e-017
Spine  23.2514 0.534573 1.04813
Spine1  8.01188 0.786627 0.144586
HEad  9.00866 -0.306788 1.09089
LeftShoulder1  7.61139 -17.074 -30.9326
LeftArm  1.29061 -41.1412 -69.1517
LeftForeArm  52.1266 6.12785 -4.75329
LeftHand  -0.246645 0.021 5.37786
RightShoulder  9.18268 17.1429 38.3755
RightArm  -1.28382 34.02 51.9452
RightForeArm  13.5057 6.6577 10.9765
RightHand  -0.24729 -0.0210522 -5.37781
LeftUpLeg  -10.7636 20.6386 13.234
LeftLeg  12.6683 4.71055 -0.773366
LeftFoot  -2.22547 1.04354 -12.8808
LeftToes  5.09284e-011 3.02203e-011 3.83118e-011
560
root  1.18541 39.43 12.6149 -172.731 11.6783 -179.437
RightUpLeg  -20.3806 9.9354 -7.26669
RightLeg  18.1154 5.02503 1.5631
RightFoot  -4.20257 -0.328993 4.78188
RightToes  -1.33073e-015 0 -3.6325e-017
Spine  23.3305 0.0650285 -0.350721
Spine1  7.94999 0.0634773 -0.0780731
HEad  8.95706 1.79909 1.0211
LeftShoulder1  7.52565 -17.0927 -30.4768
LeftArm  1.97985 -42.6306 -69.6595
LeftForeArm  55.2244 6.02485 -4.68955
LeftHand  -0.246645 0.021 5.37786
RightShoulder  9.223 17.1495 38.5494
RightArm  -2.16568 34.1381 51.8743
RightForeArm  11.7817 7.40339 10.589
RightHand  -0.24729 -0.0210522 -5.37781
LeftUpLeg  -10.1649 21.2656 13.3702
LeftLeg  12.8271 5.42806 -0.648903
LeftFoot  -2.4744 1.03577 -13.1229
LeftToes  5.09284e-011 3.02203e-011 3.83118e-011
561
root  1.22086 39.4062 12.6094 -172.792 13.3579 -179.523
RightUpLeg  -20.8664 11.0426 -7.43841
RightLeg  18.4581 5.4962 1.81853
RightFoot  -4.17248 -0.318936 4.61111
RightToes  -1.33073e-015 0 -3.6325e-017
Spine  23.3951 -0.437254 -1.95638
Spine1  7.80422 -0.771889 -0.177704
HEad  8.82114 4.03977 0.96397
LeftShoulder1  7.41452 -17.0773 -29.9568
LeftArm  2.51068 -44.167 -70.389
LeftForeArm  58.6999 5.87004 -4.42283
LeftHand  -0.246645 0.021 5.37786
RightShoulder  9.24873 17.1432 38.6824
RightArm  -2.91317 34.2629 51.8575
RightForeArm  9.91711 8.37607 10.1539
RightHand  -0.24729 -0.0210522 -5.37781
LeftUpLeg  -9.5575 21.9547 13.4929
LeftLeg  12.9966 6.24379 -0.468828
LeftFoot  -2.73373 1.03108 -13.4348
LeftToes  5.09284e-011 3.02203e-011 3.83118e-011
562
root  1.25407 39.3826 12.598 -172.842 15.2162 -179.548
RightUpLeg  -21.3383 12.0795 -7.51872
RightLeg  18.736 6.20012 2.13094
RightFoot  -4.09338 -0.306123 4.39792
RightToes  -1.33073e-015 0 -3.6325e-017
Spine  23.461 -0.897561 -3.76035
Spine1  7.59448 -1.67834 0.0182686
HEad  8.65844 6.38041 0.826827
LeftShoulder1  7.38615 -17.1027 -29.771
LeftArm  3.1041 -45.8059 -71.0564
LeftForeArm  62.0772 5.71489 -4.17572
LeftHand  -0.246645 0.021 5.37786
RightShoulder  9.17318 17.0718 38.4797
RightArm  -3.53244 34.3295 52.0369
RightForeArm  7.78775 9.68035 9.60418
RightHand  -0.24729 -0.0210522 -5.37781
LeftUpLeg  -8.88452 22.6136 13.6742
LeftLeg  13.1947 7.24003 -0.204024
LeftFoot  -3.0338 1.02616 -13.8264
LeftToes  5.09284e-011 3.02203e-011 3.83118e-011
563
root  1.27617 39.3548 12.5755 -172.887 17.2477 -179.507
RightUpLeg  -21.7947 13.0491 -7.52703
RightLeg  18.9914 7.12592 2.51622
RightFoot  -4.00803 -0.295456 4.21005
RightToes  -1.33073e-015 0 -3.6325e-017
Spine  23.4526 -1.33626 -5.70441
Spine1  7.41863 -2.64018 0.432953
HEad  8.51697 8.94349 0.583683
LeftShoulder1  7.41975 -17.174 -29.8097
LeftArm  4.2639 -47.5983 -71.7278
LeftForeArm  64.7114 5.63676 -4.26906
LeftHand  -0.246645 0.021 5.37786
RightShoulder  8.9856 16.9303 37.8949
RightArm  -3.72309 34.3599 52.3929
RightForeArm  5.07238 11.5233 8.88335
RightHand  -0.24729 -0.0210522 -5.37781
LeftUpLeg  -8.18281 23.3714 13.8928
LeftLeg  13.5206 8.26805 0.153868
LeftFoot  -3.42672 1.01014 -14.2466
LeftToes  5.09284e-011 3.02203e-011 3.83118e-011
564
root  1.28284 39.3153 12.5389 -172.882 19.4859 -179.41
RightUpLeg  -22.3355 14.0674 -7.52259
RightLeg  19.306 8.18784 2.97085
RightFoot  -3.95223 -0.289292 4.08605
RightToes  -1.33073e-015 0 -3.6325e-017
Spine  23.2957 -1.83605 -7.6908
Spine1  7.27567 -3.63611 0.756634
HEad  8.38218 11.8224 0.346911
LeftShoulder1  7.39676 -17.2265 -29.6034
LeftArm  5.96215 -49.5218 -72.7994
LeftForeArm  66.7912 5.60836 -4.56023
LeftHand  -0.246645 0.021 5.37786
RightShoulder  8.80133 16.7847 37.3242
RightArm  -3.09714 34.4209 52.6491
RightForeArm  1.74785 13.9655 7.96802
RightHand  -0.24729 -0.0210522 -5.37781
LeftUpLeg  -7.55454 24.4722 14.0968
LeftLeg  14.1003 9.12633 0.623306
LeftFoot  -3.9641 0.973552 -14.669
LeftToes  5.09284e-011 3.02203e-011 3.83118e-011
565
root  1.27896 39.2634 12.4858 -172.833 21.9583 -179.254
RightUpLeg  -22.961 15.1838 -7.49817
RightLeg  19.7094 9.36175 3.49813
RightFoot  -3.92509 -0.284039 3.97722
RightToes  -1.33073e-015 0 -3.6325e-017
Spine  23.0126 -2.41161 -9.65611
Spine1  7.12033 -4.62681 0.854984
HEad  8.22529 14.9573 0.179563
LeftShoulder1  7.26915 -17.2197 -28.9866
LeftArm  7.77038 -51.5476 -74.5779
LeftForeArm  68.9908 5.5394 -4.64723
LeftHand  -0.246645 0.021 5.37786
RightShoulder  8.70496 16.6933 37.053
RightArm  -2.05569 34.5552 52.6048
RightForeArm  -1.60289 16.7984 6.86011
RightHand  -0.24729 -0.0210522 -5.37781
LeftUpLeg  -6.9392 25.8853 14.3252
LeftLeg  14.896 9.87156 1.19384
LeftFoot  -4.63289 0.919336 -15.142
LeftToes  5.09284e-011 3.02203e-011 3.83118e-011
